<?xml version="1.0" encoding="UTF-8"?>
<svg id="Ebene_1" data-name="Ebene 1" xmlns="http://www.w3.org/2000/svg" width="64" height="48" xmlns:xlink="http://www.w3.org/1999/xlink" viewBox="0 0 64 48">
  <defs>
    <clipPath id="clippath">
      <rect width="64" height="48" fill="none"/>
    </clipPath>
  </defs>
  <g clip-path="url(#clippath)">
    <path d="M0,0h64v48H0V0Z" fill="#012169"/>
    <path d="M7.5,0l24.4,18.1L56.2,0h7.8v6.2l-24,17.9,24,17.8v6.1h-8l-24-17.9-23.9,17.9H0v-6l23.9-17.8L0,6.4V0h7.5Z" fill="#fff"/>
    <path d="M42.4,28.1l21.6,15.9v4l-27.1-19.9h5.5ZM24,30.1l.6,3.5-19.2,14.4H0l24-17.9ZM64,0v.3l-24.9,18.8.2-4.4L59,0h5ZM0,0l23.9,17.6h-6L0,4.2V0Z" fill="#c8102e"/>
    <path d="M24.1,0v48h16V0h-16ZM0,16v16h64v-16H0Z" fill="#fff"/>
    <path d="M0,19.3v9.6h64v-9.6H0ZM27.3,0v48h9.6V0h-9.6Z" fill="#c8102e"/>
  </g>
</svg>