<?xml version="1.0" encoding="UTF-8"?>
<svg id="Ebene_1" data-name="Ebene 1" xmlns="http://www.w3.org/2000/svg" width="1800" height="1680" viewBox="0 0 1800 1680">
  <rect width="1800" height="1680" fill="none"/>
  <g>
    <path d="M474.5,181.14l-18.28,78.04,13.58,3.18,23.58-100.73-100.73-23.58-3.18,13.58,77.02,18.03c-158.7,104.44-274.11,261.34-325.88,443.7l13.42,3.79c50.87-179.22,164.37-333.47,320.46-436.07v.04Z" fill="rgba(230, 237, 238, .2)"/>
    <path d="M127.77,760.08l47.12,59.77,10.93-8.65-64.05-81.23-81.23,64.05,8.65,10.93,65.15-51.4c-2.41,25.09-3.67,50.51-3.67,75.8,0,162.86,49.2,319.23,142.26,452.15l11.42-8c-91.43-130.59-139.73-284.19-139.73-444.15,0-23.13,1.06-46.34,3.1-69.35l.04.08Z" fill="rgba(230, 237, 238, .2)"/>
    <path d="M998.93,1598.53l48.1-59.65-10.85-8.77-64.91,80.49,80.53,64.95,8.77-10.85-64.25-51.81c187.95-22.85,361.29-112.68,489.11-253.84l-10.37-9.38c-124.55,137.57-293.16,225.56-476.05,248.86h-.08Z" fill="rgba(230, 237, 238, .2)"/>
    <path d="M1629.36,565.44l-75.36-36.8-6.12,12.52,92.94,45.37,6.12-12.52.24-.08s-.04-.16-.08-.24l39.13-80.12-12.53-6.12-33.13,67.84c-65.72-177.71-192.8-325.47-359.62-417.51l-6.73,12.2c165.51,91.34,291.21,238.5,355.18,415.39l-.04.08Z" fill="rgba(230, 237, 238, .2)"/>
    <path d="M1573.72,1240.87c75.68-123.66,115.74-265.59,115.74-411.43,0-44.18-3.67-88.49-10.94-131.69l-13.74,2.32c7.14,42.47,10.73,86,10.73,129.41,0,143.6-39.54,283.37-114.19,405.06l-17.51-78.61-13.62,3.02,22.48,100.97,100.97-22.48-3.02-13.62-76.86,17.09-.04-.04Z" fill="rgba(230, 237, 238, .2)"/>
    <path d="M1070,129.61l5.99,12.61,93.43-44.35-44.35-93.42-12.61,6,32.52,68.42c-78.82-25.7-161.11-38.76-244.86-38.76-106.56,0-209.94,20.89-307.24,62.01l5.43,12.85c95.59-40.43,197.13-60.95,301.81-60.95,84.04,0,166.57,13.38,245.47,39.69l-75.55,35.9h-.04Z" fill="rgba(230, 237, 238, .2)"/>
    <path d="M437.82,1389.41l.08-13.96-88.85-.48s-.2-.21-.33-.33l-.33.33-13.95-.09-.57,103.42,13.95.08.45-84.53c135.89,132.88,314.21,212.1,503.75,223.49l.82-13.91c-183.75-11.02-356.76-86.98-489.6-214.43l74.49.41h.08Z" fill="rgba(230, 237, 238, .2)"/>
  </g>
</svg>