<svg fill="none" height="120" viewBox="0 0 195 120" width="195" xmlns="http://www.w3.org/2000/svg"><g fill="#003d49"><path d="m114.183 40.4727c-7.179 0-13.015 5.849-13.015 13.042v6.048c0 .8149.656 1.472 1.47 1.472s1.471-.6571 1.471-1.472v-6.048c0-5.564 4.519-10.095 10.074-10.095h30.517v23.6581c0 5.565-4.519 10.095-10.073 10.095h-10.124c-.814 0-1.471.6619-1.471 1.4759 0 .8139.657 1.5049 1.471 1.5049h10.124c7.178 0 13.018-5.8868 13.018-13.0758v-26.6051z"/><path d="m119.116 75.7256v-6.2301c0-2.4219-1.971-4.369-4.391-4.369h-9.174c-2.421 0-4.391 1.9431-4.391 4.369v6.2301c0 2.423 1.97 4.4321 4.391 4.4321h9.174c2.42 0 4.391-2.0053 4.391-4.4321zm-2.942 0c0 .7979-.65 1.447-1.449 1.447h-9.174c-.8 0-1.45-.6491-1.45-1.447v-6.2301c0-.8021.65-1.4509 1.45-1.4509h9.174c.799 0 1.449.6488 1.449 1.4509zm-17.2236-9.1272c0-.8218-.66-1.4678-1.4739-1.4678h-5.069c-2.42 0-4.391 1.9719-4.391 4.399v9.156c0 .8139.66 1.4721 1.4711 1.4721.81 0 1.47-.6582 1.47-1.4721v-9.156c0-.802.6499-1.451 1.4499-1.451l5.0979-.009c.814 0 1.445-.6492 1.445-1.4712zm-.021-21.7279c0-2.4429-1.9709-4.3978-4.3909-4.3978h-8.992c-2.421 0-4.391 1.9718-4.391 4.3978v6.2301c0 2.4259 1.97 4.3981 4.391 4.3981h8.971c.814 0 1.47-.6611 1.47-1.4711 0-.815-.66-1.4762-1.47-1.4762h-8.971c-.8 0-1.45-.6489-1.45-1.4508v-1.8151h10.442c2.42 0 4.3909-1.976 4.3909-4.415zm-2.9339.021c0 .8182-.65 1.451-1.45 1.451h-10.4449v-1.468c0-.802.6499-1.4509 1.4489-1.4509h8.996c.8 0 1.45.6489 1.45 1.4679zm-15.718 20.235h-8.992c-2.421 0-4.3909 1.972-4.3909 4.3981v6.2298c0 2.4271 1.9699 4.398 4.3909 4.398h8.971c.813 0 1.47-.6608 1.47-1.471 0-.8148-.66-1.4759-1.47-1.4759h-8.971c-.8 0-1.4499-.6491-1.4499-1.4511v-1.8148h10.442c2.42 0 4.391-1.9762 4.391-4.415 0-2.443-1.971-4.3981-4.3911-4.3981zm1.457 4.4148c0 .818-.65 1.4513-1.45 1.4513h-10.445v-1.468c0-.802.65-1.4511 1.449-1.4511h8.996c.8 0 1.45.6491 1.45 1.4678zm-2.8089-27.6007c0-.8219-.6601-1.4679-1.4741-1.4679h-5.069c-2.4199 0-4.3909 1.9719-4.3909 4.3989v9.1561c0 .8138.66 1.4721 1.4709 1.4721.81 0 1.47-.6583 1.47-1.4721v-9.1561c0-.802.65-1.4509 1.45-1.4509l5.0981-.0091c.814 0 1.445-.6492 1.445-1.471zm-14.7051 36.741c0-.8201-.657-1.4761-1.47-1.4719h-10.984l11.89-9.479c.479-.3971.654-1.0501.443-1.6331-.211-.5821-.764-.9709-1.382-.9709h-14.796c-.81 0-1.4709.6608-1.4709 1.4758 0 .81.6609 1.4671 1.4709 1.4671h10.7311l-11.6741 9.4791c-.478.401-.653 1.0497-.442 1.6328.214.5832.767.9711 1.385.9672h14.832c.81 0 1.467-.651 1.467-1.4671zm-.018-27.5731v-6.238c0-2.426-1.97-4.3978-4.39-4.3978h-8.971c-2.42 0-4.3909 1.9718-4.3909 4.3978v14.646c0 .8109.6609 1.4718 1.4709 1.4718.814 0 1.4711-.6609 1.4711-1.4718v-4.0099h10.4199c2.42 0 4.39-1.975 4.39-4.3981zm-2.941 0c0 .802-.65 1.451-1.449 1.451h-10.42v-7.689c0-.802.649-1.4509 1.449-1.4509h8.971c.799 0 1.449.6489 1.449 1.4509z"/></g></svg>